<?xml version="1.0" encoding="utf-8" standalone="no"?>
<!DOCTYPE svg PUBLIC "-//W3C//DTD SVG 1.1//EN"
  "http://www.w3.org/Graphics/SVG/1.1/DTD/svg11.dtd">
<svg xmlns:xlink="http://www.w3.org/1999/xlink" width="488.16pt" height="217.44pt" viewBox="0 0 488.16 217.44" xmlns="http://www.w3.org/2000/svg" version="1.1">
 <metadata>
  <rdf:RDF xmlns:dc="http://purl.org/dc/elements/1.1/" xmlns:cc="http://creativecommons.org/ns#" xmlns:rdf="http://www.w3.org/1999/02/22-rdf-syntax-ns#">
   <cc:Work>
    <dc:type rdf:resource="http://purl.org/dc/dcmitype/StillImage"/>
    <dc:date>2026-09-16T13:03:40.608455</dc:date>
    <dc:format>image/svg+xml</dc:format>
    <dc:creator>
     <cc:Agent>
      <dc:title>Matplotlib v3.11.2, https://matplotlib.org/</dc:title>
     </cc:Agent>
    </dc:creator>
   </cc:Work>
  </rdf:RDF>
 </metadata>
 <defs>
  <style type="text/css">*{stroke-linejoin: round; stroke-linecap: butt}</style>
 </defs>
 <g id="figure_1">
  <g id="patch_1">
   <path d="M 0 217.44 
L 488.16 217.44 
L 488.16 0 
L 0 0 
z
" style="fill: #ffffff"/>
  </g>
  <g id="axes_1">
   <g id="table_1">
    <g id="patch_2">
     <path d="M 7.2 66.816 
L 112.48 66.816 
L 112.48 30.96 
L 7.2 30.96 
z
" style="fill: #e7eef4; stroke: #d6dee5; stroke-width: 0.5; stroke-linejoin: miter"/>
    </g>
    <g id="text_1">
     <text style="font-weight: 700; font-size: 10px; font-family: 'DejaVu Sans'; text-anchor: start; fill: #172b3a" x="17.728" y="51.485656" transform="rotate(-0 17.728 51.485656)">EF</text>
    </g>
    <g id="patch_3">
     <path d="M 112.48 66.816 
L 252.853333 66.816 
L 252.853333 30.96 
L 112.48 30.96 
z
" style="fill: #e7eef4; stroke: #d6dee5; stroke-width: 0.5; stroke-linejoin: miter"/>
    </g>
    <g id="text_2">
     <text style="font-weight: 700; font-size: 10px; font-family: 'DejaVu Sans'; text-anchor: start; fill: #172b3a" x="126.517333" y="51.486047" transform="rotate(-0 126.517333 51.486047)">Train</text>
    </g>
    <g id="patch_4">
     <path d="M 252.853333 66.816 
L 480.96 66.816 
L 480.96 30.96 
L 252.853333 30.96 
z
" style="fill: #e7eef4; stroke: #d6dee5; stroke-width: 0.5; stroke-linejoin: miter"/>
    </g>
    <g id="text_3">
     <text style="font-weight: 700; font-size: 10px; font-family: 'DejaVu Sans'; text-anchor: start; fill: #172b3a" x="275.664" y="51.486047" transform="rotate(-0 275.664 51.486047)">Validation</text>
    </g>
    <g id="patch_5">
     <path d="M 7.2 90.72 
L 112.48 90.72 
L 112.48 66.816 
L 7.2 66.816 
z
" style="fill: #ffffff; stroke: #d6dee5; stroke-width: 0.5; stroke-linejoin: miter"/>
    </g>
    <g id="text_4">
     <text style="font-size: 10px; font-family: 'DejaVu Sans'; text-anchor: start" x="17.728" y="81.365656" transform="rotate(-0 17.728 81.365656)">EF0</text>
    </g>
    <g id="patch_6">
     <path d="M 112.48 90.72 
L 252.853333 90.72 
L 252.853333 66.816 
L 112.48 66.816 
z
" style="fill: #ffffff; stroke: #d6dee5; stroke-width: 0.5; stroke-linejoin: miter"/>
    </g>
    <g id="text_5">
     <text style="font-size: 10px; font-family: 'DejaVu Sans'; text-anchor: end" x="238.816" y="81.365656" transform="rotate(-0 238.816 81.365656)">6,311</text>
    </g>
    <g id="patch_7">
     <path d="M 252.853333 90.72 
L 480.96 90.72 
L 480.96 66.816 
L 252.853333 66.816 
z
" style="fill: #ffffff; stroke: #d6dee5; stroke-width: 0.5; stroke-linejoin: miter"/>
    </g>
    <g id="text_6">
     <text style="font-size: 10px; font-family: 'DejaVu Sans'; text-anchor: end" x="458.149333" y="81.365656" transform="rotate(-0 458.149333 81.365656)">1,434</text>
    </g>
    <g id="patch_8">
     <path d="M 7.2 114.624 
L 112.48 114.624 
L 112.48 90.72 
L 7.2 90.72 
z
" style="fill: #f6f8fa; stroke: #d6dee5; stroke-width: 0.5; stroke-linejoin: miter"/>
    </g>
    <g id="text_7">
     <text style="font-size: 10px; font-family: 'DejaVu Sans'; text-anchor: start" x="17.728" y="105.269656" transform="rotate(-0 17.728 105.269656)">EF1</text>
    </g>
    <g id="patch_9">
     <path d="M 112.48 114.624 
L 252.853333 114.624 
L 252.853333 90.72 
L 112.48 90.72 
z
" style="fill: #f6f8fa; stroke: #d6dee5; stroke-width: 0.5; stroke-linejoin: miter"/>
    </g>
    <g id="text_8">
     <text style="font-size: 10px; font-family: 'DejaVu Sans'; text-anchor: end" x="238.816" y="105.269656" transform="rotate(-0 238.816 105.269656)">4,088</text>
    </g>
    <g id="patch_10">
     <path d="M 252.853333 114.624 
L 480.96 114.624 
L 480.96 90.72 
L 252.853333 90.72 
z
" style="fill: #f6f8fa; stroke: #d6dee5; stroke-width: 0.5; stroke-linejoin: miter"/>
    </g>
    <g id="text_9">
     <text style="font-size: 10px; font-family: 'DejaVu Sans'; text-anchor: end" x="458.149333" y="105.269656" transform="rotate(-0 458.149333 105.269656)">1,294</text>
    </g>
    <g id="patch_11">
     <path d="M 7.2 138.528 
L 112.48 138.528 
L 112.48 114.624 
L 7.2 114.624 
z
" style="fill: #ffffff; stroke: #d6dee5; stroke-width: 0.5; stroke-linejoin: miter"/>
    </g>
    <g id="text_10">
     <text style="font-size: 10px; font-family: 'DejaVu Sans'; text-anchor: start" x="17.728" y="129.173656" transform="rotate(-0 17.728 129.173656)">EF2</text>
    </g>
    <g id="patch_12">
     <path d="M 112.48 138.528 
L 252.853333 138.528 
L 252.853333 114.624 
L 112.48 114.624 
z
" style="fill: #ffffff; stroke: #d6dee5; stroke-width: 0.5; stroke-linejoin: miter"/>
    </g>
    <g id="text_11">
     <text style="font-size: 10px; font-family: 'DejaVu Sans'; text-anchor: end" x="238.816" y="129.173656" transform="rotate(-0 238.816 129.173656)">1,045</text>
    </g>
    <g id="patch_13">
     <path d="M 252.853333 138.528 
L 480.96 138.528 
L 480.96 114.624 
L 252.853333 114.624 
z
" style="fill: #ffffff; stroke: #d6dee5; stroke-width: 0.5; stroke-linejoin: miter"/>
    </g>
    <g id="text_12">
     <text style="font-size: 10px; font-family: 'DejaVu Sans'; text-anchor: end" x="458.149333" y="129.173656" transform="rotate(-0 458.149333 129.173656)">317</text>
    </g>
    <g id="patch_14">
     <path d="M 7.2 162.432 
L 112.48 162.432 
L 112.48 138.528 
L 7.2 138.528 
z
" style="fill: #f6f8fa; stroke: #d6dee5; stroke-width: 0.5; stroke-linejoin: miter"/>
    </g>
    <g id="text_13">
     <text style="font-size: 10px; font-family: 'DejaVu Sans'; text-anchor: start" x="17.728" y="153.077656" transform="rotate(-0 17.728 153.077656)">EF3</text>
    </g>
    <g id="patch_15">
     <path d="M 112.48 162.432 
L 252.853333 162.432 
L 252.853333 138.528 
L 112.48 138.528 
z
" style="fill: #f6f8fa; stroke: #d6dee5; stroke-width: 0.5; stroke-linejoin: miter"/>
    </g>
    <g id="text_14">
     <text style="font-size: 10px; font-family: 'DejaVu Sans'; text-anchor: end" x="238.816" y="153.077656" transform="rotate(-0 238.816 153.077656)">261</text>
    </g>
    <g id="patch_16">
     <path d="M 252.853333 162.432 
L 480.96 162.432 
L 480.96 138.528 
L 252.853333 138.528 
z
" style="fill: #f6f8fa; stroke: #d6dee5; stroke-width: 0.5; stroke-linejoin: miter"/>
    </g>
    <g id="text_15">
     <text style="font-size: 10px; font-family: 'DejaVu Sans'; text-anchor: end" x="458.149333" y="153.077656" transform="rotate(-0 458.149333 153.077656)">59</text>
    </g>
    <g id="patch_17">
     <path d="M 7.2 186.336 
L 112.48 186.336 
L 112.48 162.432 
L 7.2 162.432 
z
" style="fill: #ffffff; stroke: #d6dee5; stroke-width: 0.5; stroke-linejoin: miter"/>
    </g>
    <g id="text_16">
     <text style="font-size: 10px; font-family: 'DejaVu Sans'; text-anchor: start" x="17.728" y="176.981656" transform="rotate(-0 17.728 176.981656)">EF4</text>
    </g>
    <g id="patch_18">
     <path d="M 112.48 186.336 
L 252.853333 186.336 
L 252.853333 162.432 
L 112.48 162.432 
z
" style="fill: #ffffff; stroke: #d6dee5; stroke-width: 0.5; stroke-linejoin: miter"/>
    </g>
    <g id="text_17">
     <text style="font-size: 10px; font-family: 'DejaVu Sans'; text-anchor: end" x="238.816" y="176.981656" transform="rotate(-0 238.816 176.981656)">59</text>
    </g>
    <g id="patch_19">
     <path d="M 252.853333 186.336 
L 480.96 186.336 
L 480.96 162.432 
L 252.853333 162.432 
z
" style="fill: #ffffff; stroke: #d6dee5; stroke-width: 0.5; stroke-linejoin: miter"/>
    </g>
    <g id="text_18">
     <text style="font-size: 10px; font-family: 'DejaVu Sans'; text-anchor: end" x="458.149333" y="176.981656" transform="rotate(-0 458.149333 176.981656)">13</text>
    </g>
    <g id="patch_20">
     <path d="M 7.2 210.24 
L 112.48 210.24 
L 112.48 186.336 
L 7.2 186.336 
z
" style="fill: #f6f8fa; stroke: #d6dee5; stroke-width: 0.5; stroke-linejoin: miter"/>
    </g>
    <g id="text_19">
     <text style="font-size: 10px; font-family: 'DejaVu Sans'; text-anchor: start" x="17.728" y="200.885656" transform="rotate(-0 17.728 200.885656)">EF5</text>
    </g>
    <g id="patch_21">
     <path d="M 112.48 210.24 
L 252.853333 210.24 
L 252.853333 186.336 
L 112.48 186.336 
z
" style="fill: #f6f8fa; stroke: #d6dee5; stroke-width: 0.5; stroke-linejoin: miter"/>
    </g>
    <g id="text_20">
     <text style="font-size: 10px; font-family: 'DejaVu Sans'; text-anchor: end" x="238.816" y="200.885656" transform="rotate(-0 238.816 200.885656)">7</text>
    </g>
    <g id="patch_22">
     <path d="M 252.853333 210.24 
L 480.96 210.24 
L 480.96 186.336 
L 252.853333 186.336 
z
" style="fill: #f6f8fa; stroke: #d6dee5; stroke-width: 0.5; stroke-linejoin: miter"/>
    </g>
    <g id="text_21">
     <text style="font-size: 10px; font-family: 'DejaVu Sans'; text-anchor: end" x="458.149333" y="200.885656" transform="rotate(-0 458.149333 200.885656)">0</text>
    </g>
   </g>
  </g>
  <g id="text_22">
   <text style="font-weight: 700; font-size: 12px; font-family: 'DejaVu Sans'; text-anchor: start" x="7.2" y="16.318125" transform="rotate(-0 7.2 16.318125)">Original EF class support</text>
  </g>
 </g>
</svg>
